<svg version="1.1" id="Seo-Search-Eye--Streamline-Ultimate" xmlns="http://www.w3.org/2000/svg" xmlns:xlink="http://www.w3.org/1999/xlink" x="0" y="0" viewBox="0 0 24 24" xml:space="preserve" enable-background="new 0 0 24 24">
  <desc>
    Seo Search Eye Streamline Icon: https://streamlinehq.com
  </desc>
  <g>
    <path d="M22.4 24c0.4 0 0.8 -0.2 1.1 -0.4 0.6 -0.6 0.6 -1.5 0 -2.1l-4.4 -4.4c-0.1 -0.1 -0.1 -0.2 0 -0.3 2.8 -4 1.8 -9.4 -2.2 -12.2S7.5 2.8 4.7 6.7s-1.8 9.4 2.2 12.2c2.9 2 6.8 2.1 9.7 0.2 0.1 -0.1 0.2 -0.1 0.3 0l4.4 4.4c0.3 0.3 0.7 0.5 1.1 0.5zm-4.3 -12c-1.1 3.4 -4.9 5.3 -8.3 4.1 -2 -0.7 -3.5 -2.2 -4.1 -4.1 -0.1 -0.1 -0.1 -0.3 0 -0.5 1.1 -3.4 4.9 -5.3 8.3 -4.1 2 0.7 3.5 2.2 4.1 4.1l0 0.5z" fill="#077ff5" stroke-width="1"></path>
    <path d="M1.5 22.2c0.2 0.2 0.5 0.3 0.7 0.2l3 -0.9 0.2 0c3.4 2.2 7.6 2.6 11.3 0.9 0.4 -0.2 0.6 -0.6 0.4 -1 -0.2 -0.4 -0.6 -0.5 -1 -0.4 -3.3 1.5 -7.2 1.1 -10.2 -1 -0.2 -0.1 -0.4 -0.2 -0.6 -0.1l-1.7 0.5c-0.1 0 -0.2 0 -0.2 -0.1 -0.1 -0.1 -0.1 -0.2 -0.1 -0.2l0.5 -1.7c0.1 -0.2 0 -0.5 -0.1 -0.6C0.4 13.2 1.4 6.8 6 3.5s11 -2.3 14.3 2.3c1.3 1.8 2 3.9 1.9 6 0 1.6 -0.3 3.1 -1 4.5 -0.2 0.4 0 0.8 0.3 1 0.4 0.2 0.8 0 1 -0.3 0.8 -1.6 1.2 -3.4 1.2 -5.1C23.6 5.3 18.4 0 11.9 0S0.1 5.3 0.1 11.8c0 2.3 0.7 4.5 1.9 6.5l0 0.2 -0.9 3c0 0.2 0.1 0.5 0.4 0.7z" fill="#077ff5" stroke-width="1"></path>
    <path d="M9.9 11.8a2 2 0 1 0 4 0 2 2 0 1 0 -4 0" fill="#077ff5" stroke-width="1"></path>
  </g>
</svg>